# xmcd
#
# Track frame offsets:
#	150
#	15441
#	33712
#	49203
#	65393
#	84304
#	95136
#	115760
#	136953
#	156151
#
# Disc length: 2410 seconds
#
# Revision: 0
# Processed by: cddbd v1.4PL0 Copyright (c) Steve Scherf et al.
# Submitted via: dBpowerAMP V4.0
#
DISCID=7e09680a
DTITLE=Tom Rigney - Chasing The Devil
DYEAR=1900
DGENRE=Zydeco
TTITLE0=Hounded
TTITLE1=Rigo's Blues
TTITLE2=La Gitana
TTITLE3=La Parisienne
TTITLE4=Dancin' Annie
TTITLE5=The Enchanted Pool
TTITLE6=Mad Dog
TTITLE7=Consolation
TTITLE8=Chasing The Devil
TTITLE9=Midnight Blue
EXTD=
EXTT0=
EXTT1=
EXTT2=
EXTT3=
EXTT4=
EXTT5=
EXTT6=
EXTT7=
EXTT8=
EXTT9=
PLAYORDER=
